#!OML:ASF \\sashay\E\Suitcase\Project 1\Capture day 1\Session 1\Male1.ASF
:FULLY-SPECIFIED
:DEGREES
829
root -0.480216 17.3755 20.8967 8.13785 6.70287 -1.82334
lowerback 0.411564 -3.7314 4.52646
upperback 1.58246 -5.0417 4.81678
thorax 1.44758 -2.49366 2.38744
lowerneck -9.13084 -0.675056 -5.78951
upperneck 38.5513 1.92732 -4.14231
head 15.006 -0.556616 -0.419282
rclavicle -3.39922e-014 0
rhumerus -65.1321 -43.2855 -23.8327
rradius 13.1692
rwrist 25.0832
rhand -13.6455 15.0405
rfingers 7.12502
rthumb 12.4709 -14.5674
lclavicle -3.39922e-014 0
lhumerus -34.7836 -3.92376 93.0699
lradius 40.7585
lwrist -0.905683
lhand -5.69821 42.7516
lfingers 7.12502
lthumb 20.1224 71.7295
rfemur -2.31586 -1.48727 27.0702
rtibia 7.3163
rfoot -12.1998 -16.1761
rtoes 13.0792
lfemur -7.16252 -7.70165 -11.0572
ltibia 15.0498
lfoot -15.2064 2.65244
ltoes 0.801467
830
root -0.471724 17.3821 20.8817 8.15823 6.69697 -1.93073
lowerback 0.513821 -3.80297 4.73804
upperback 1.60224 -5.12929 4.77739
thorax 1.3898 -2.53448 2.23729
lowerneck -9.36165 -0.590229 -5.52973
upperneck 38.7543 2.03825 -4.19612
head 15.1599 -0.490514 -0.477171
rclavicle -3.18055e-015 -1.43125e-014
rhumerus -65.1824 -43.5364 -23.6543
rradius 13.0039
rwrist 25.4521
rhand -14.3693 15.9867
rfingers 7.12502
rthumb 11.773 -13.6624
lclavicle -3.18055e-015 -1.43125e-014
lhumerus -34.6745 -4.06944 93.0055
lradius 40.67
lwrist -0.807469
lhand -6.00143 42.7406
lfingers 7.12502
lthumb 19.831 71.7488
rfemur -2.56597 -1.60504 27.1118
rtibia 7.52528
rfoot -12.1345 -16.0402
rtoes 12.905
lfemur -7.19865 -7.7153 -10.9806
ltibia 14.9889
lfoot -14.7395 2.91835
ltoes 1.11269
831
root -0.470345 17.3849 20.86 8.30313 6.56432 -1.73531
lowerback 0.532021 -3.90028 4.49084
upperback 1.68061 -5.26205 4.69916
thorax 1.47546 -2.60246 2.28992
lowerneck -9.64779 -0.493293 -5.32262
upperneck 38.7788 2.18453 -4.28342
head 15.2405 -0.417585 -0.531047
rclavicle 3.06128e-014 -6.36111e-015
rhumerus -64.6885 -43.7333 -24.1301
rradius 12.8499
rwrist 25.1526
rhand -14.3819 16.704
rfingers 7.12502
rthumb 11.7608 -12.9458
lclavicle 3.06128e-014 -6.36111e-015
lhumerus -34.595 -4.04506 92.8461
lradius 40.993
lwrist -0.299152
lhand -5.93779 42.573
lfingers 7.12502
lthumb 19.8922 71.5749
rfemur -2.7462 -1.62909 26.8566
rtibia 7.5392
rfoot -12.0903 -15.948
rtoes 13.7313
lfemur -7.4366 -7.90064 -11.2037
ltibia 15.1095
lfoot -14.9793 3.01397
ltoes 0.748471
832
root -0.489046 17.3804 20.8501 8.21923 6.24157 -1.99361
lowerback 0.699664 -3.81262 4.46318
upperback 1.69725 -5.13445 4.77591
thorax 1.40719 -2.54098 2.39615
lowerneck -9.53091 -0.528055 -5.28874
upperneck 38.8165 2.10058 -4.25439
head 15.2303 -0.444859 -0.538172
rclavicle -7.35503e-015 -4.77083e-015
rhumerus -64.0376 -43.4591 -24.9386
rradius 12.8219
rwrist 24.4048
rhand -14.2068 16.2123
rfingers 7.12502
rthumb 11.9297 -13.4278
lclavicle -7.35503e-015 -4.77083e-015
lhumerus -34.6611 -4.22123 92.8623
lradius 41.1174
lwrist -0.420742
lhand -6.23081 42.7366
lfingers 7.12502
lthumb 19.6105 71.7675
rfemur -2.81246 -1.41105 27.2305
rtibia 7.66531
rfoot -12.2258 -15.7157
rtoes 13.6255
lfemur -7.41742 -7.84321 -10.8753
ltibia 15.2129
lfoot -15.0649 3.26749
ltoes 1.14224
833
root -0.461217 17.3857 20.8168 8.19516 6.50359 -1.98297
lowerback 1.00712 -3.82245 4.9268
upperback 1.61012 -5.11266 4.75467
thorax 1.10318 -2.52723 2.14662
lowerneck -9.51162 -0.68631 -5.49923
upperneck 39.0298 1.907 -4.19302
head 15.334 -0.5538 -0.508594
rclavicle 2.98177e-015 1.90833e-014
rhumerus -63.6189 -43.0613 -25.617
rradius 13.015
rwrist 23.4785
rhand -13.9644 15.6612
rfingers 7.12502
rthumb 12.1634 -13.9652
lclavicle 2.98177e-015 1.90833e-014
lhumerus -34.7292 -4.46964 93.1538
lradius 41.2805
lwrist -0.571033
lhand -5.73396 43.1244
lfingers 7.12502
lthumb 20.0881 72.1059
rfemur -3.07143 -1.82467 27.0408
rtibia 8.00687
rfoot -12.0009 -15.7344
rtoes 12.7967
lfemur -7.51919 -7.97107 -10.9807
ltibia 15.2222
lfoot -15.0817 3.02394
ltoes 1.36267
834
root -0.467573 17.3811 20.8019 8.20368 6.3277 -2.03782
lowerback 1.1134 -3.92806 4.79611
upperback 1.60299 -5.24528 4.77205
thorax 1.04979 -2.59646 2.24508
lowerneck -9.27523 -0.575075 -5.28368
upperneck 38.8351 2.04221 -4.36705
head 15.1826 -0.482157 -0.595694
rclavicle 2.22639e-014 3.18055e-015
rhumerus -62.3842 -42.4177 -27.2874
rradius 13.1455
rwrist 22.4929
rhand -13.9879 15.2575
rfingers 7.12502
rthumb 12.1408 -14.3703
lclavicle 2.22639e-014 3.18055e-015
lhumerus -34.7486 -4.61138 93.0655
lradius 41.2197
lwrist -0.267909
lhand -6.16645 42.844
lfingers 7.12502
lthumb 19.6723 71.8686
rfemur -3.23394 -1.77814 27.1218
rtibia 8.22537
rfoot -12.3976 -15.3968
rtoes 13.4062
lfemur -7.59569 -7.94873 -10.9039
ltibia 15.2899
lfoot -14.8824 3.35897
ltoes -0.510735
835
root -0.457145 17.3881 20.783 8.30825 6.28233 -1.7494
lowerback 1.20546 -3.95959 4.64398
upperback 1.54811 -5.27608 4.67376
thorax 0.945534 -2.61466 2.23685
lowerneck -9.60369 -0.541116 -5.30611
upperneck 39.3002 2.16267 -4.38654
head 15.4982 -0.456837 -0.594753
rclavicle 6.85807e-014 -3.81667e-014
rhumerus -61.9753 -42.1512 -27.8723
rradius 13.1291
rwrist 21.9717
rhand -14.0127 15.5377
rfingers 7.12502
rthumb 12.1169 -14.0914
lclavicle 6.85807e-014 -3.81667e-014
lhumerus -34.6777 -4.70788 93.0852
lradius 41.2588
lwrist -0.10327
lhand -5.71552 43.3954
lfingers 7.12502
lthumb 20.1058 72.3751
rfemur -3.53009 -1.91147 26.7164
rtibia 8.49373
rfoot -12.1415 -15.445
rtoes 12.307
lfemur -7.74154 -7.90921 -11.2748
ltibia 15.3452
lfoot -14.9966 3.19733
ltoes 0.495131
836
root -0.46228 17.3867 20.7708 8.41128 6.12192 -1.75303
lowerback 1.14965 -3.88838 4.58349
upperback 1.54607 -5.18624 4.65298
thorax 0.977336 -2.57008 2.2437
lowerneck -9.5513 -0.590269 -5.21344
upperneck 39.3487 2.05404 -4.36845
head 15.5086 -0.487428 -0.621112
rclavicle -4.7112e-014 -1.59028e-014
rhumerus -61.767 -42.0685 -28.2885
rradius 13.2237
rwrist 21.5796
rhand -14.0378 15.4948
rfingers 7.12502
rthumb 12.0927 -14.1358
lclavicle -4.7112e-014 -1.59028e-014
lhumerus -34.6471 -4.71704 93.075
lradius 41.1539
lwrist -0.474476
lhand -6.2319 42.833
lfingers 7.12502
lthumb 19.6094 71.8641
rfemur -3.84889 -1.87833 26.7273
rtibia 8.79611
rfoot -12.5523 -15.1301
rtoes 13.7463
lfemur -7.88421 -7.88363 -11.2505
ltibia 15.3705
lfoot -14.8675 3.49691
ltoes 2.43742
837
root -0.468986 17.3831 20.7558 8.38318 5.98089 -1.90255
lowerback 1.25842 -3.91762 4.56409
upperback 1.61021 -5.22141 4.69424
thorax 0.988585 -2.58793 2.30253
lowerneck -9.56106 -0.581852 -5.12625
upperneck 39.3899 2.10343 -4.5274
head 15.5366 -0.477853 -0.699021
rclavicle -1.39149e-015 -2.38542e-015
rhumerus -61.6489 -42.3468 -28.2011
rradius 13.031
rwrist 22.0046
rhand -13.8202 15.9102
rfingers 7.12502
rthumb 12.3025 -13.7079
lclavicle -1.39149e-015 -2.38542e-015
lhumerus -34.4724 -5.07824 93.0481
lradius 41.2169
lwrist 0.224139
lhand -6.46139 43.1251
lfingers 7.12502
lthumb 19.3888 72.1784
rfemur -3.99724 -1.85461 26.9161
rtibia 9.02873
rfoot -12.288 -15.1328
rtoes 12.85
lfemur -7.9173 -7.76017 -11.0676
ltibia 15.3993
lfoot -14.9235 3.39407
ltoes 0.910068
